{"title":"La_Sentinelle_(The_Sentinel)[1992]DVDRIP[Fre]","uid":9632200,"size":1741432493,"categoryP":"video","categoryS":"movies","magnet":"?xt=urn:btih:e76309761870e506210e5d0b279562ff4cb949d4&amp;dn=La_Sentinelle_%28The_Sentinel%29%5B1992%5DDVDRIP%5BFre%5D&amp;tr=udp%3A%2F%2Ftracker.openbittorrent.com%3A80&amp;tr=udp%3A%2F%2Fopen.demonii.com%3A1337&amp;tr=udp%3A%2F%2Ftracker.coppersurfer.tk%3A6969&amp;tr=udp%3A%2F%2Fexodus.desync.com%3A6969","seeders":2,"leechers":1,"uploader":"Fanchig","files":-1,"time":1392801896,"description":"Mathias, whose dead father was a diplomat in Germany, decides to study the forensic medicine in Paris. In the train, he has some troubles with the border police, and is insulted and threatened by a strange man, who disappeared quickly. Next day, he discovers in his luggage a shrunken human head. \n\nHe soons becomes fascinated by it, feeling responsible (sentry of the memory of the head's owner) and starts his own investigation. What will leads him to cope with French secret services.\n\nGeneral\nFormat                                   : Matroska\nFormat version                           : Version 4 / Version 2\nFile size                                : 1.62 GiB\nDuration                                 : 2h 19mn\nOverall bit rate                         : 1 660 Kbps\nEncoded date                             : UTC 2014-02-17 09:44:27\nWriting application                      : mkvmerge v6.7.0 ('Back to the Ground') 64bit built on Jan  8 2014 15:10:52\nWriting library                          : libebml v1.3.0 + libmatroska v1.4.1\n\nVideo\nID                                       : 1\nFormat                                   : AVC\nFormat/Info                              : Advanced Video Codec\nFormat profile                           : &lt;a class=&quot;__cf_email__&quot; href=&quot;/cdn-cgi/l/email-protection&quot; data-cfemail=&quot;b8f0d1dfd0f8f48b9688&quot;&gt;[email&amp;#160;protected]&lt;/a&gt;&lt;script cf-hash='f9e31' type=&quot;text/javascript&quot;&gt;\n/* &lt;![CDATA[ */!function(){try{var t=&quot;currentScript&quot;in document?document.currentScript:function(){for(var t=document.getElementsByTagName(&quot;script&quot;),e=t.length;e--;)if(t[e].getAttribute(&quot;cf-hash&quot;))return t[e]}();if(t&amp;&amp;t.previousSibling){var e,r,n,i,c=t.previousSibling,a=c.getAttribute(&quot;data-cfemail&quot;);if(a){for(e=&quot;&quot;,r=parseInt(a.substr(0,2),16),n=2;a.length-n;n+=2)i=parseInt(a.substr(n,2),16)^r,e+=String.fromCharCode(i);e=document.createTextNode(e),c.parentNode.replaceChild(e,c)}}}catch(u){}}();/* ]]&gt; */&lt;/script&gt;\nFormat settings, CABAC                   : Yes\nFormat settings, ReFrames                : 4 frames\nCodec ID                                 : V_MPEG4/ISO/AVC\nDuration                                 : 2h 19mn\nBit rate                                 : 1 400 Kbps\nWidth                                    : 720 pixels\nHeight                                   : 576 pixels\nDisplay aspect ratio                     : 16:9\nFrame rate mode                          : Constant\nFrame rate                               : 25.000 fps\nStandard                                 : PAL\nColor space                              : YUV\nChroma subsampling                       : 4:2:0\nBit depth                                : 8 bits\nScan type                                : Progressive\nBits/(Pixel*Frame)                       : 0.135\nStream size                              : 1.34 GiB (83%)\nWriting library                          : x264 core 120 r2120 0c7dab9\nEncoding settings                        : cabac=1 / ref=3 / deblock=1:0:0 / analyse=0x3:0x113 / me=hex / subme=7 / psy=1 / psy_rd=1.00:0.00 / mixed_ref=1 / me_range=16 / chroma_me=1 / trellis=1 / 8x8dct=1 / cqm=0 / deadzone=21,11 / fast_pskip=1 / chroma_qp_offset=-2 / threads=3 / sliced_threads=0 / nr=0 / decimate=1 / interlaced=0 / bluray_compat=0 / constrained_intra=0 / bframes=3 / b_pyramid=2 / b_adapt=1 / b_bias=0 / direct=1 / weightb=1 / open_gop=0 / weightp=2 / keyint=250 / keyint_min=25 / scenecut=40 / intra_refresh=0 / rc_lookahead=40 / rc=2pass / mbtree=1 / bitrate=1400 / ratetol=1.0 / qcomp=0.60 / qpmin=0 / qpmax=51 / qpstep=4 / cplxblur=20.0 / qblur=0.5 / ip_ratio=1.40 / aq=1:1.00\nDefault                                  : Yes\nForced                                   : No\nMatrix coefficients                      : SMPTE 240M\n\nAudio\nID                                       : 2\nFormat                                   : AC-3\nFormat/Info                              : Audio Coding 3\nMode extension                           : CM (complete main)\nFormat settings, Endianness              : Big\nCodec ID                                 : A_AC3\nDuration                                 : 2h 19mn\nBit rate mode                            : Constant\nBit rate                                 : 256 Kbps\nChannel(s)                               : 2 channels\nChannel positions                        : Front: L R\nSampling rate                            : 48.0 KHz\nBit depth                                : 16 bits\nCompression mode                         : Lossy\nStream size                              : 256 MiB (15%)\nLanguage                                 : French\nDefault                                  : Yes\nForced                                   : No\n\nText #1\nID                                       : 3\nFormat                                   : UTF-8\nCodec ID                                 : S_TEXT/UTF8\nCodec ID/Info                            : UTF-8 Plain Text\nLanguage                                 : English\nDefault                                  : Yes\nForced                                   : No\n\nText #2\nID                                       : 4\nFormat                                   : UTF-8\nCodec ID                                 : S_TEXT/UTF8\nCodec ID/Info                            : UTF-8 Plain Text\nLanguage                                 : Spanish\nDefault                                  : No\nForced                                   : No\n\nText #3\nID                                       : 5\nFormat                                   : VobSub\nMuxing mode                              : zlib\nCodec ID                                 : S_VOBSUB\nCodec ID/Info                            : The same subtitle format used on DVDs\nLanguage                                 : Russian\nDefault                                  : No\nForced                                   : No\n\nMenu\n00:00:00.000                             : en:Chapter 1\n00:01:18.120                             : en:Chapter 2\n00:09:58.320                             : en:Chapter 3\n00:18:43.560                             : en:Chapter 4\n00:22:55.560                             : en:Chapter 5\n00:32:04.680                             : en:Chapter 6\n00:37:07.200                             : en:Chapter 7\n00:43:01.440                             : en:Chapter 8\n00:45:11.640                             : en:Chapter 9\n00:52:31.200                             : en:Chapter 10\n00:56:01.080                             : en:Chapter 11\n01:03:05.320                             : en:Chapter 12\n01:08:16.480                             : en:Chapter 13\n01:13:58.360                             : en:Chapter 14\n01:17:29.320                             : en:Chapter 15\n01:22:16.120                             : en:Chapter 16\n01:26:48.560                             : en:Chapter 17\n01:29:35.000                             : en:Chapter 18\n01:45:04.040                             : en:Chapter 19\n01:49:10.520                             : en:Chapter 20\n01:53:53.400                             : en:Chapter 21\n02:01:12.960                             : en:Chapter 22\n02:03:40.200                             : en:Chapter 23\n02:06:28.440                             : en:Chapter 24\n02:16:57.120                             : en:Chapter 25\n\nThanks to the original image ripper.","torrent":{"xt":"urn:btih:e76309761870e506210e5d0b279562ff4cb949d4","amp;dn":"La_Sentinelle_%28The_Sentinel%29%5B1992%5DDVDRIP%5BFre%5D","amp;tr":["udp%3A%2F%2Ftracker.openbittorrent.com%3A80","udp%3A%2F%2Fopen.demonii.com%3A1337","udp%3A%2F%2Ftracker.coppersurfer.tk%3A6969","udp%3A%2F%2Fexodus.desync.com%3A6969"],"infoHash":"e76309761870e506210e5d0b279562ff4cb949d4","infoHashBuffer":{"type":"Buffer","data":[231,99,9,118,24,112,229,6,33,14,93,11,39,149,98,255,76,185,73,212]},"announce":[],"urlList":[]}}